<svg xmlns="http://www.w3.org/2000/svg" xmlns:xlink="http://www.w3.org/1999/xlink" width="398" zoomAndPan="magnify" viewBox="0 0 298.5 224.249992" height="299" preserveAspectRatio="xMidYMid meet" version="1.0"><defs><g/><clipPath id="35da0889bb"><path d="M 0.25 0 L 297.75 0 L 297.75 223.503906 L 0.25 223.503906 Z M 0.25 0 " clip-rule="nonzero"/></clipPath></defs><g clip-path="url(#35da0889bb)"><path fill="#c39f70" d="M 0.480469 214.558594 C 0.480469 219.527344 4.507812 223.550781 9.476562 223.550781 L 288.519531 223.550781 C 293.492188 223.550781 297.515625 219.527344 297.515625 214.558594 L 297.515625 9.027344 C 297.515625 4.0625 293.492188 0.03125 288.519531 0.03125 L 9.476562 0.03125 C 4.507812 0.03125 0.480469 4.0625 0.480469 9.027344 L 0.480469 214.558594 " fill-opacity="1" fill-rule="nonzero"/></g><path fill="#6d5e46" d="M 9.328125 211.964844 L 288.667969 211.964844 L 288.667969 11.621094 L 9.328125 11.621094 L 9.328125 211.964844 " fill-opacity="1" fill-rule="nonzero"/><path fill="#1a5430" d="M 13.984375 208.625 L 284.011719 208.625 L 284.011719 14.964844 L 13.984375 14.964844 L 13.984375 208.625 " fill-opacity="1" fill-rule="nonzero"/><path fill="#21693c" d="M 18.175781 205.613281 L 279.820312 205.613281 L 279.820312 17.96875 L 18.175781 17.96875 L 18.175781 205.613281 " fill-opacity="1" fill-rule="nonzero"/><path fill="#43392c" d="M 34.851562 219.082031 L 102.234375 219.082031 L 102.234375 204.921875 L 34.851562 204.921875 L 34.851562 219.082031 " fill-opacity="1" fill-rule="nonzero"/><path fill="#faf9a9" d="M 35.246094 204.921875 L 71.425781 204.921875 L 71.425781 190.765625 L 35.246094 190.765625 L 35.246094 204.921875 " fill-opacity="1" fill-rule="nonzero"/><path fill="#231d15" d="M 32.886719 204.921875 L 73.789062 204.921875 L 73.789062 199.21875 L 32.886719 199.21875 L 32.886719 204.921875 " fill-opacity="1" fill-rule="nonzero"/><path fill="#ffffff" d="M 86.734375 204.769531 L 71.527344 189.558594 C 70.421875 188.453125 70.421875 186.65625 71.527344 185.550781 C 72.632812 184.445312 74.425781 184.445312 75.53125 185.550781 L 90.742188 200.765625 L 86.734375 204.769531 " fill-opacity="1" fill-rule="nonzero"/><path fill="#f57b8b" d="M 77.402344 204.464844 L 98.910156 204.464844 C 100.472656 204.460938 101.742188 203.195312 101.742188 201.632812 C 101.742188 200.066406 100.472656 198.796875 98.910156 198.796875 L 77.402344 198.796875 L 77.402344 204.464844 " fill-opacity="1" fill-rule="nonzero"/><g fill="#ffffff" fill-opacity="1"><g transform="translate(88.97851, 128.251551)"><g><path d="M 6.90625 -1.359375 C 6.875 -0.984375 6.71875 -0.660156 6.4375 -0.390625 C 6.164062 -0.128906 5.851562 0 5.5 0 C 5.09375 0 4.765625 -0.128906 4.515625 -0.390625 C 4.265625 -0.660156 4.140625 -0.984375 4.140625 -1.359375 L 4.140625 -29.4375 C 4.140625 -29.820312 4.269531 -30.144531 4.53125 -30.40625 C 4.789062 -30.664062 5.128906 -30.796875 5.546875 -30.796875 C 5.898438 -30.796875 6.210938 -30.664062 6.484375 -30.40625 C 6.765625 -30.144531 6.90625 -29.820312 6.90625 -29.4375 Z M 6.90625 -1.359375 "/></g></g><g transform="translate(99.978715, 128.251551)"><g><path d="M 17.953125 0.4375 C 15.691406 0.4375 13.59375 0.0390625 11.65625 -0.75 C 9.71875 -1.539062 8.035156 -2.644531 6.609375 -4.0625 C 5.191406 -5.488281 4.085938 -7.171875 3.296875 -9.109375 C 2.503906 -11.046875 2.109375 -13.144531 2.109375 -15.40625 C 2.109375 -17.65625 2.503906 -19.75 3.296875 -21.6875 C 4.085938 -23.625 5.191406 -25.300781 6.609375 -26.71875 C 8.035156 -28.144531 9.71875 -29.253906 11.65625 -30.046875 C 13.59375 -30.835938 15.691406 -31.234375 17.953125 -31.234375 C 19.503906 -31.234375 21.003906 -31.050781 22.453125 -30.6875 C 23.910156 -30.320312 25.210938 -29.773438 26.359375 -29.046875 C 26.554688 -28.890625 26.707031 -28.71875 26.8125 -28.53125 C 26.914062 -28.34375 26.96875 -28.144531 26.96875 -27.9375 C 26.96875 -27.53125 26.835938 -27.203125 26.578125 -26.953125 C 26.316406 -26.703125 26.035156 -26.578125 25.734375 -26.578125 C 25.585938 -26.578125 25.445312 -26.597656 25.3125 -26.640625 C 25.1875 -26.679688 25.066406 -26.734375 24.953125 -26.796875 C 23.953125 -27.347656 22.863281 -27.785156 21.6875 -28.109375 C 20.519531 -28.429688 19.273438 -28.59375 17.953125 -28.59375 C 15.429688 -28.59375 13.1875 -28.019531 11.21875 -26.875 C 9.25 -25.738281 7.707031 -24.171875 6.59375 -22.171875 C 5.476562 -20.179688 4.921875 -17.925781 4.921875 -15.40625 C 4.921875 -12.875 5.476562 -10.609375 6.59375 -8.609375 C 7.707031 -6.617188 9.25 -5.050781 11.21875 -3.90625 C 13.1875 -2.769531 15.429688 -2.203125 17.953125 -2.203125 C 19.273438 -2.203125 20.601562 -2.390625 21.9375 -2.765625 C 23.269531 -3.148438 24.421875 -3.664062 25.390625 -4.3125 L 25.171875 -3.390625 L 25.171875 -13.515625 L 25.828125 -12.890625 L 18.21875 -12.890625 C 17.832031 -12.890625 17.507812 -13.019531 17.25 -13.28125 C 16.988281 -13.550781 16.859375 -13.863281 16.859375 -14.21875 C 16.859375 -14.625 16.988281 -14.941406 17.25 -15.171875 C 17.507812 -15.410156 17.832031 -15.53125 18.21875 -15.53125 L 26.625 -15.53125 C 27 -15.53125 27.3125 -15.40625 27.5625 -15.15625 C 27.8125 -14.90625 27.9375 -14.59375 27.9375 -14.21875 L 27.9375 -3.609375 C 27.9375 -3.367188 27.878906 -3.144531 27.765625 -2.9375 C 27.648438 -2.738281 27.488281 -2.566406 27.28125 -2.421875 C 25.988281 -1.535156 24.539062 -0.835938 22.9375 -0.328125 C 21.34375 0.179688 19.679688 0.4375 17.953125 0.4375 Z M 17.953125 0.4375 "/></g></g></g><g fill="#ffffff" fill-opacity="1"><g transform="translate(130.559282, 128.251551)"><g><path d="M 26.625 -28.515625 C 26.96875 -28.273438 27.171875 -27.972656 27.234375 -27.609375 C 27.296875 -27.242188 27.207031 -26.882812 26.96875 -26.53125 C 26.757812 -26.269531 26.492188 -26.125 26.171875 -26.09375 C 25.859375 -26.0625 25.550781 -26.117188 25.25 -26.265625 C 24.132812 -27.003906 22.9375 -27.578125 21.65625 -27.984375 C 20.382812 -28.390625 19.019531 -28.59375 17.5625 -28.59375 C 15.769531 -28.59375 14.101562 -28.273438 12.5625 -27.640625 C 11.019531 -27.015625 9.675781 -26.109375 8.53125 -24.921875 C 7.382812 -23.734375 6.492188 -22.332031 5.859375 -20.71875 C 5.234375 -19.101562 4.921875 -17.332031 4.921875 -15.40625 C 4.921875 -13.40625 5.242188 -11.59375 5.890625 -9.96875 C 6.535156 -8.34375 7.4375 -6.941406 8.59375 -5.765625 C 9.757812 -4.585938 11.101562 -3.691406 12.625 -3.078125 C 14.15625 -2.460938 15.800781 -2.15625 17.5625 -2.15625 C 19 -2.15625 20.351562 -2.359375 21.625 -2.765625 C 22.90625 -3.179688 24.101562 -3.738281 25.21875 -4.4375 C 25.507812 -4.613281 25.820312 -4.679688 26.15625 -4.640625 C 26.488281 -4.597656 26.757812 -4.429688 26.96875 -4.140625 C 27.238281 -3.816406 27.332031 -3.46875 27.25 -3.09375 C 27.175781 -2.726562 26.976562 -2.445312 26.65625 -2.25 C 25.925781 -1.78125 25.0625 -1.335938 24.0625 -0.921875 C 23.070312 -0.515625 22.019531 -0.1875 20.90625 0.0625 C 19.789062 0.3125 18.675781 0.4375 17.5625 0.4375 C 15.445312 0.4375 13.460938 0.0546875 11.609375 -0.703125 C 9.765625 -1.460938 8.125 -2.539062 6.6875 -3.9375 C 5.25 -5.332031 4.125 -7 3.3125 -8.9375 C 2.507812 -10.875 2.109375 -13.03125 2.109375 -15.40625 C 2.109375 -17.6875 2.503906 -19.785156 3.296875 -21.703125 C 4.085938 -23.628906 5.1875 -25.296875 6.59375 -26.703125 C 8.007812 -28.109375 9.65625 -29.207031 11.53125 -30 C 13.40625 -30.800781 15.414062 -31.203125 17.5625 -31.203125 C 19.226562 -31.203125 20.835938 -30.960938 22.390625 -30.484375 C 23.953125 -30.015625 25.363281 -29.359375 26.625 -28.515625 Z M 26.625 -28.515625 "/></g></g></g><g fill="#ffffff" fill-opacity="1"><g transform="translate(159.291811, 128.251551)"><g><path d="M 12.625 0.4375 C 10.394531 0.46875 8.457031 0.117188 6.8125 -0.609375 C 5.175781 -1.347656 3.609375 -2.453125 2.109375 -3.921875 C 1.960938 -4.035156 1.835938 -4.179688 1.734375 -4.359375 C 1.628906 -4.535156 1.578125 -4.738281 1.578125 -4.96875 C 1.578125 -5.320312 1.71875 -5.644531 2 -5.9375 C 2.28125 -6.226562 2.597656 -6.375 2.953125 -6.375 C 3.296875 -6.375 3.617188 -6.226562 3.921875 -5.9375 C 5.054688 -4.707031 6.347656 -3.769531 7.796875 -3.125 C 9.253906 -2.476562 10.820312 -2.15625 12.5 -2.15625 C 13.90625 -2.15625 15.15625 -2.375 16.25 -2.8125 C 17.351562 -3.25 18.226562 -3.878906 18.875 -4.703125 C 19.519531 -5.523438 19.84375 -6.476562 19.84375 -7.5625 C 19.84375 -8.914062 19.472656 -10.007812 18.734375 -10.84375 C 18.003906 -11.675781 17.035156 -12.363281 15.828125 -12.90625 C 14.628906 -13.457031 13.300781 -13.953125 11.84375 -14.390625 C 10.632812 -14.742188 9.488281 -15.144531 8.40625 -15.59375 C 7.320312 -16.050781 6.351562 -16.609375 5.5 -17.265625 C 4.644531 -17.929688 3.984375 -18.742188 3.515625 -19.703125 C 3.046875 -20.671875 2.8125 -21.847656 2.8125 -23.234375 C 2.8125 -24.785156 3.222656 -26.160156 4.046875 -27.359375 C 4.867188 -28.566406 6.035156 -29.515625 7.546875 -30.203125 C 9.054688 -30.890625 10.804688 -31.234375 12.796875 -31.234375 C 14.535156 -31.234375 16.203125 -30.941406 17.796875 -30.359375 C 19.398438 -29.773438 20.671875 -28.910156 21.609375 -27.765625 C 22.046875 -27.296875 22.265625 -26.867188 22.265625 -26.484375 C 22.265625 -26.191406 22.117188 -25.898438 21.828125 -25.609375 C 21.535156 -25.316406 21.210938 -25.171875 20.859375 -25.171875 C 20.566406 -25.171875 20.316406 -25.269531 20.109375 -25.46875 C 19.609375 -26.09375 18.976562 -26.644531 18.21875 -27.125 C 17.457031 -27.613281 16.613281 -27.988281 15.6875 -28.25 C 14.757812 -28.507812 13.796875 -28.640625 12.796875 -28.640625 C 11.421875 -28.640625 10.179688 -28.425781 9.078125 -28 C 7.984375 -27.582031 7.117188 -26.972656 6.484375 -26.171875 C 5.859375 -25.378906 5.546875 -24.425781 5.546875 -23.3125 C 5.546875 -22.082031 5.894531 -21.070312 6.59375 -20.28125 C 7.300781 -19.488281 8.226562 -18.835938 9.375 -18.328125 C 10.519531 -17.816406 11.738281 -17.335938 13.03125 -16.890625 C 14.289062 -16.546875 15.5 -16.144531 16.65625 -15.6875 C 17.8125 -15.226562 18.835938 -14.660156 19.734375 -13.984375 C 20.628906 -13.316406 21.332031 -12.46875 21.84375 -11.4375 C 22.351562 -10.414062 22.609375 -9.125 22.609375 -7.5625 C 22.609375 -6.070312 22.179688 -4.722656 21.328125 -3.515625 C 20.484375 -2.316406 19.320312 -1.363281 17.84375 -0.65625 C 16.363281 0.0390625 14.625 0.40625 12.625 0.4375 Z M 12.625 0.4375 "/></g></g><g transform="translate(184.020271, 128.251551)"><g><path d="M 5.453125 -30.796875 L 21.609375 -30.796875 C 21.953125 -30.796875 22.253906 -30.671875 22.515625 -30.421875 C 22.785156 -30.171875 22.921875 -29.859375 22.921875 -29.484375 C 22.921875 -29.097656 22.785156 -28.785156 22.515625 -28.546875 C 22.253906 -28.316406 21.953125 -28.203125 21.609375 -28.203125 L 6.46875 -28.203125 L 6.90625 -28.953125 L 6.90625 -16.59375 L 6.421875 -17.15625 L 19.625 -17.15625 C 19.976562 -17.15625 20.285156 -17.023438 20.546875 -16.765625 C 20.804688 -16.503906 20.9375 -16.195312 20.9375 -15.84375 C 20.9375 -15.457031 20.804688 -15.144531 20.546875 -14.90625 C 20.285156 -14.675781 19.976562 -14.5625 19.625 -14.5625 L 6.515625 -14.5625 L 6.90625 -15 L 6.90625 -2.328125 L 6.6875 -2.59375 L 21.609375 -2.59375 C 21.953125 -2.59375 22.253906 -2.457031 22.515625 -2.1875 C 22.785156 -1.925781 22.921875 -1.625 22.921875 -1.28125 C 22.921875 -0.894531 22.785156 -0.582031 22.515625 -0.34375 C 22.253906 -0.113281 21.953125 0 21.609375 0 L 5.453125 0 C 5.097656 0 4.789062 -0.128906 4.53125 -0.390625 C 4.269531 -0.660156 4.140625 -0.96875 4.140625 -1.3125 L 4.140625 -29.484375 C 4.140625 -29.835938 4.269531 -30.144531 4.53125 -30.40625 C 4.789062 -30.664062 5.097656 -30.796875 5.453125 -30.796875 Z M 5.453125 -30.796875 "/></g></g></g></svg>