<svg xmlns="http://www.w3.org/2000/svg" xmlns:xlink="http://www.w3.org/1999/xlink" width="150" zoomAndPan="magnify" viewBox="0 0 112.5 74.999997" height="100" preserveAspectRatio="xMidYMid meet" version="1.0"><defs><g/><clipPath id="854a82c993"><path d="M 6.304688 0.164062 L 105.613281 0.164062 L 105.613281 74.832031 L 6.304688 74.832031 Z M 6.304688 0.164062 " clip-rule="nonzero"/></clipPath></defs><g clip-path="url(#854a82c993)"><path fill="#c39f70" d="M 6.382812 71.847656 C 6.382812 73.503906 7.726562 74.851562 9.386719 74.851562 L 102.53125 74.851562 C 104.191406 74.851562 105.535156 73.503906 105.535156 71.847656 L 105.535156 3.179688 C 105.535156 1.523438 104.191406 0.175781 102.53125 0.175781 L 9.386719 0.175781 C 7.726562 0.175781 6.382812 1.523438 6.382812 3.179688 L 6.382812 71.847656 " fill-opacity="1" fill-rule="nonzero"/></g><path fill="#6d5e46" d="M 9.335938 70.980469 L 102.582031 70.980469 L 102.582031 4.046875 L 9.335938 4.046875 L 9.335938 70.980469 " fill-opacity="1" fill-rule="nonzero"/><path fill="#1a5430" d="M 10.890625 69.863281 L 101.027344 69.863281 L 101.027344 5.164062 L 10.890625 5.164062 L 10.890625 69.863281 " fill-opacity="1" fill-rule="nonzero"/><path fill="#21693c" d="M 12.289062 68.859375 L 99.628906 68.859375 L 99.628906 6.167969 L 12.289062 6.167969 L 12.289062 68.859375 " fill-opacity="1" fill-rule="nonzero"/><path fill="#43392c" d="M 17.855469 73.355469 L 40.351562 73.355469 L 40.351562 68.628906 L 17.855469 68.628906 L 17.855469 73.355469 " fill-opacity="1" fill-rule="nonzero"/><path fill="#faf9a9" d="M 17.988281 68.628906 L 30.066406 68.628906 L 30.066406 63.898438 L 17.988281 63.898438 L 17.988281 68.628906 " fill-opacity="1" fill-rule="nonzero"/><path fill="#231d15" d="M 17.199219 68.628906 L 30.855469 68.628906 L 30.855469 66.722656 L 17.199219 66.722656 L 17.199219 68.628906 " fill-opacity="1" fill-rule="nonzero"/><path fill="#ffffff" d="M 35.175781 68.574219 L 30.097656 63.492188 C 29.730469 63.125 29.730469 62.523438 30.097656 62.15625 C 30.46875 61.785156 31.066406 61.785156 31.4375 62.15625 L 36.511719 67.238281 L 35.175781 68.574219 " fill-opacity="1" fill-rule="nonzero"/><path fill="#f57b8b" d="M 32.058594 68.472656 L 39.238281 68.472656 C 39.761719 68.472656 40.183594 68.050781 40.183594 67.527344 C 40.183594 67.003906 39.761719 66.582031 39.238281 66.582031 L 32.058594 66.582031 L 32.058594 68.472656 " fill-opacity="1" fill-rule="nonzero"/><g fill="#ffffff" fill-opacity="1"><g transform="translate(32.299803, 43.471289)"><g><path d="M 2.734375 -0.53125 C 2.710938 -0.382812 2.644531 -0.257812 2.53125 -0.15625 C 2.425781 -0.0507812 2.304688 0 2.171875 0 C 2.003906 0 1.875 -0.0507812 1.78125 -0.15625 C 1.6875 -0.257812 1.640625 -0.382812 1.640625 -0.53125 L 1.640625 -11.625 C 1.640625 -11.769531 1.691406 -11.894531 1.796875 -12 C 1.898438 -12.101562 2.03125 -12.15625 2.1875 -12.15625 C 2.320312 -12.15625 2.445312 -12.101562 2.5625 -12 C 2.675781 -11.894531 2.734375 -11.769531 2.734375 -11.625 Z M 2.734375 -0.53125 "/></g></g></g><g fill="#ffffff" fill-opacity="1"><g transform="translate(36.642806, 43.471289)"><g><path d="M 7.09375 0.171875 C 6.195312 0.171875 5.363281 0.015625 4.59375 -0.296875 C 3.832031 -0.609375 3.171875 -1.046875 2.609375 -1.609375 C 2.046875 -2.171875 1.609375 -2.832031 1.296875 -3.59375 C 0.984375 -4.363281 0.828125 -5.191406 0.828125 -6.078125 C 0.828125 -6.972656 0.984375 -7.800781 1.296875 -8.5625 C 1.609375 -9.332031 2.046875 -9.992188 2.609375 -10.546875 C 3.171875 -11.109375 3.832031 -11.546875 4.59375 -11.859375 C 5.363281 -12.179688 6.195312 -12.34375 7.09375 -12.34375 C 7.707031 -12.34375 8.300781 -12.269531 8.875 -12.125 C 9.445312 -11.976562 9.957031 -11.757812 10.40625 -11.46875 C 10.488281 -11.40625 10.550781 -11.335938 10.59375 -11.265625 C 10.632812 -11.191406 10.65625 -11.113281 10.65625 -11.03125 C 10.65625 -10.875 10.601562 -10.742188 10.5 -10.640625 C 10.394531 -10.546875 10.285156 -10.5 10.171875 -10.5 C 10.109375 -10.5 10.050781 -10.503906 10 -10.515625 C 9.945312 -10.535156 9.898438 -10.554688 9.859375 -10.578125 C 9.460938 -10.796875 9.03125 -10.96875 8.5625 -11.09375 C 8.101562 -11.226562 7.613281 -11.296875 7.09375 -11.296875 C 6.09375 -11.296875 5.203125 -11.066406 4.421875 -10.609375 C 3.648438 -10.160156 3.046875 -9.539062 2.609375 -8.75 C 2.171875 -7.96875 1.953125 -7.078125 1.953125 -6.078125 C 1.953125 -5.085938 2.171875 -4.195312 2.609375 -3.40625 C 3.046875 -2.613281 3.648438 -1.992188 4.421875 -1.546875 C 5.203125 -1.097656 6.09375 -0.875 7.09375 -0.875 C 7.613281 -0.875 8.132812 -0.945312 8.65625 -1.09375 C 9.1875 -1.25 9.644531 -1.453125 10.03125 -1.703125 L 9.9375 -1.34375 L 9.9375 -5.328125 L 10.203125 -5.09375 L 7.1875 -5.09375 C 7.039062 -5.09375 6.914062 -5.144531 6.8125 -5.25 C 6.707031 -5.351562 6.65625 -5.472656 6.65625 -5.609375 C 6.65625 -5.773438 6.707031 -5.90625 6.8125 -6 C 6.914062 -6.09375 7.039062 -6.140625 7.1875 -6.140625 L 10.515625 -6.140625 C 10.660156 -6.140625 10.78125 -6.085938 10.875 -5.984375 C 10.976562 -5.890625 11.03125 -5.765625 11.03125 -5.609375 L 11.03125 -1.421875 C 11.03125 -1.328125 11.003906 -1.238281 10.953125 -1.15625 C 10.910156 -1.082031 10.847656 -1.015625 10.765625 -0.953125 C 10.265625 -0.609375 9.695312 -0.332031 9.0625 -0.125 C 8.425781 0.0703125 7.769531 0.171875 7.09375 0.171875 Z M 7.09375 0.171875 "/></g></g></g><g fill="#ffffff" fill-opacity="1"><g transform="translate(48.716335, 43.471289)"><g><path d="M 10.515625 -11.265625 C 10.648438 -11.171875 10.726562 -11.050781 10.75 -10.90625 C 10.78125 -10.757812 10.75 -10.617188 10.65625 -10.484375 C 10.570312 -10.378906 10.460938 -10.316406 10.328125 -10.296875 C 10.203125 -10.285156 10.082031 -10.3125 9.96875 -10.375 C 9.53125 -10.664062 9.054688 -10.890625 8.546875 -11.046875 C 8.046875 -11.210938 7.507812 -11.296875 6.9375 -11.296875 C 6.226562 -11.296875 5.566406 -11.171875 4.953125 -10.921875 C 4.347656 -10.671875 3.816406 -10.3125 3.359375 -9.84375 C 2.910156 -9.375 2.5625 -8.820312 2.3125 -8.1875 C 2.070312 -7.550781 1.953125 -6.847656 1.953125 -6.078125 C 1.953125 -5.296875 2.078125 -4.582031 2.328125 -3.9375 C 2.578125 -3.289062 2.929688 -2.734375 3.390625 -2.265625 C 3.847656 -1.804688 4.378906 -1.453125 4.984375 -1.203125 C 5.585938 -0.960938 6.238281 -0.84375 6.9375 -0.84375 C 7.5 -0.84375 8.03125 -0.925781 8.53125 -1.09375 C 9.039062 -1.257812 9.515625 -1.476562 9.953125 -1.75 C 10.066406 -1.820312 10.191406 -1.847656 10.328125 -1.828125 C 10.460938 -1.816406 10.570312 -1.753906 10.65625 -1.640625 C 10.757812 -1.503906 10.796875 -1.363281 10.765625 -1.21875 C 10.734375 -1.070312 10.65625 -0.960938 10.53125 -0.890625 C 10.238281 -0.703125 9.894531 -0.523438 9.5 -0.359375 C 9.101562 -0.203125 8.6875 -0.078125 8.25 0.015625 C 7.8125 0.117188 7.375 0.171875 6.9375 0.171875 C 6.101562 0.171875 5.320312 0.0195312 4.59375 -0.28125 C 3.863281 -0.582031 3.210938 -1.003906 2.640625 -1.546875 C 2.078125 -2.097656 1.632812 -2.753906 1.3125 -3.515625 C 0.988281 -4.285156 0.828125 -5.140625 0.828125 -6.078125 C 0.828125 -6.984375 0.984375 -7.816406 1.296875 -8.578125 C 1.609375 -9.335938 2.039062 -9.992188 2.59375 -10.546875 C 3.15625 -11.097656 3.804688 -11.53125 4.546875 -11.84375 C 5.296875 -12.15625 6.09375 -12.3125 6.9375 -12.3125 C 7.59375 -12.3125 8.226562 -12.21875 8.84375 -12.03125 C 9.457031 -11.851562 10.015625 -11.597656 10.515625 -11.265625 Z M 10.515625 -11.265625 "/></g></g></g><g fill="#ffffff" fill-opacity="1"><g transform="translate(60.06025, 43.471289)"><g><path d="M 4.984375 0.171875 C 4.109375 0.179688 3.34375 0.046875 2.6875 -0.234375 C 2.039062 -0.523438 1.421875 -0.960938 0.828125 -1.546875 C 0.773438 -1.585938 0.726562 -1.644531 0.6875 -1.71875 C 0.644531 -1.789062 0.625 -1.875 0.625 -1.96875 C 0.625 -2.101562 0.675781 -2.226562 0.78125 -2.34375 C 0.894531 -2.457031 1.023438 -2.515625 1.171875 -2.515625 C 1.304688 -2.515625 1.429688 -2.457031 1.546875 -2.34375 C 1.992188 -1.851562 2.503906 -1.476562 3.078125 -1.21875 C 3.648438 -0.96875 4.269531 -0.84375 4.9375 -0.84375 C 5.488281 -0.84375 5.984375 -0.929688 6.421875 -1.109375 C 6.859375 -1.285156 7.203125 -1.535156 7.453125 -1.859375 C 7.710938 -2.179688 7.84375 -2.554688 7.84375 -2.984375 C 7.84375 -3.515625 7.695312 -3.945312 7.40625 -4.28125 C 7.113281 -4.613281 6.726562 -4.882812 6.25 -5.09375 C 5.78125 -5.3125 5.253906 -5.507812 4.671875 -5.6875 C 4.203125 -5.820312 3.75 -5.976562 3.3125 -6.15625 C 2.882812 -6.332031 2.503906 -6.550781 2.171875 -6.8125 C 1.835938 -7.070312 1.578125 -7.394531 1.390625 -7.78125 C 1.203125 -8.164062 1.109375 -8.628906 1.109375 -9.171875 C 1.109375 -9.785156 1.269531 -10.328125 1.59375 -10.796875 C 1.914062 -11.273438 2.375 -11.648438 2.96875 -11.921875 C 3.570312 -12.203125 4.269531 -12.34375 5.0625 -12.34375 C 5.738281 -12.34375 6.390625 -12.222656 7.015625 -11.984375 C 7.648438 -11.753906 8.15625 -11.414062 8.53125 -10.96875 C 8.707031 -10.78125 8.796875 -10.609375 8.796875 -10.453125 C 8.796875 -10.335938 8.734375 -10.222656 8.609375 -10.109375 C 8.492188 -9.992188 8.367188 -9.9375 8.234375 -9.9375 C 8.117188 -9.9375 8.019531 -9.976562 7.9375 -10.0625 C 7.738281 -10.300781 7.488281 -10.515625 7.1875 -10.703125 C 6.882812 -10.898438 6.550781 -11.050781 6.1875 -11.15625 C 5.820312 -11.257812 5.445312 -11.3125 5.0625 -11.3125 C 4.507812 -11.3125 4.015625 -11.226562 3.578125 -11.0625 C 3.148438 -10.894531 2.8125 -10.65625 2.5625 -10.34375 C 2.3125 -10.03125 2.1875 -9.648438 2.1875 -9.203125 C 2.1875 -8.722656 2.320312 -8.328125 2.59375 -8.015625 C 2.875 -7.703125 3.238281 -7.441406 3.6875 -7.234375 C 4.144531 -7.035156 4.628906 -6.847656 5.140625 -6.671875 C 5.640625 -6.535156 6.117188 -6.375 6.578125 -6.1875 C 7.035156 -6.007812 7.441406 -5.785156 7.796875 -5.515625 C 8.148438 -5.253906 8.425781 -4.921875 8.625 -4.515625 C 8.832031 -4.109375 8.9375 -3.597656 8.9375 -2.984375 C 8.9375 -2.398438 8.765625 -1.867188 8.421875 -1.390625 C 8.085938 -0.910156 7.628906 -0.53125 7.046875 -0.25 C 6.460938 0.0195312 5.773438 0.160156 4.984375 0.171875 Z M 4.984375 0.171875 "/></g></g></g><g fill="#ffffff" fill-opacity="1"><g transform="translate(69.823312, 43.471289)"><g><path d="M 2.15625 -12.15625 L 8.53125 -12.15625 C 8.664062 -12.15625 8.785156 -12.101562 8.890625 -12 C 8.992188 -11.90625 9.046875 -11.785156 9.046875 -11.640625 C 9.046875 -11.492188 8.992188 -11.375 8.890625 -11.28125 C 8.785156 -11.1875 8.664062 -11.140625 8.53125 -11.140625 L 2.546875 -11.140625 L 2.734375 -11.4375 L 2.734375 -6.546875 L 2.53125 -6.78125 L 7.75 -6.78125 C 7.882812 -6.78125 8.003906 -6.726562 8.109375 -6.625 C 8.210938 -6.519531 8.265625 -6.394531 8.265625 -6.25 C 8.265625 -6.101562 8.210938 -5.984375 8.109375 -5.890625 C 8.003906 -5.796875 7.882812 -5.75 7.75 -5.75 L 2.578125 -5.75 L 2.734375 -5.921875 L 2.734375 -0.921875 L 2.640625 -1.03125 L 8.53125 -1.03125 C 8.664062 -1.03125 8.785156 -0.976562 8.890625 -0.875 C 8.992188 -0.769531 9.046875 -0.644531 9.046875 -0.5 C 9.046875 -0.351562 8.992188 -0.234375 8.890625 -0.140625 C 8.785156 -0.046875 8.664062 0 8.53125 0 L 2.15625 0 C 2.019531 0 1.898438 -0.0507812 1.796875 -0.15625 C 1.691406 -0.257812 1.640625 -0.378906 1.640625 -0.515625 L 1.640625 -11.640625 C 1.640625 -11.773438 1.691406 -11.894531 1.796875 -12 C 1.898438 -12.101562 2.019531 -12.15625 2.15625 -12.15625 Z M 2.15625 -12.15625 "/></g></g></g></svg>